<?xml version="1.0" standalone="no"?><!DOCTYPE svg PUBLIC "-//W3C//DTD SVG 1.1//EN" "http://www.w3.org/Graphics/SVG/1.1/DTD/svg11.dtd"><svg t="1548755994485" class="icon" style="" viewBox="0 0 1024 1024" version="1.1" xmlns="http://www.w3.org/2000/svg" p-id="1900" xmlns:xlink="http://www.w3.org/1999/xlink" width="200" height="200"><defs><style type="text/css"></style></defs><path d="M667.32186594 308.2008125c17.96729625 53.94684375 41.92119281 95.9055 83.84238656 137.86415625 35.92709906-35.9645625 59.88099656-83.9173125 77.84829188-137.86415625h-161.69067844z m-395.22057188 299.7046875h155.69658563l-77.84829281-209.79328125-77.84829282 209.79328125z" p-id="1901"></path><path d="M870.92624469 32.4725H152.33180844C86.46421063 32.4725 32.56981531 86.41934375 32.56981531 152.354375v719.29125c0 65.93503125 53.89439531 119.881875 119.76199313 119.881875h718.59443718c65.86759781 0 119.76199313-53.94684375 119.76199313-119.881875V152.354375c0-65.93503125-47.90779406-119.881875-119.76199313-119.881875zM577.50037063 805.71059375c-11.9732025 11.9881875-23.9538975 11.9881875-35.92709907 11.9881875-5.99409375 0-17.96729625 0-23.9538975-5.99409375-5.99409375-5.99409375-11.980695 0-11.980695-5.99409375s-5.98660125-11.9881875-11.97320156-23.976375c-5.99409375-11.9881875-5.99409375-17.98228125-11.980695-29.97046875l-23.946405-65.93503125H248.1473975L224.1935 751.76375c-11.9732025 23.976375-17.96729625 41.95865625-23.9538975 53.94684375-5.99409375 11.9881875-17.96729625 11.9881875-35.92709906 11.9881875-11.980695 0-23.9538975-5.99409375-35.93459156-11.9881875-11.9732025-11.9881875-17.95980375-17.98228125-17.95980375-29.97046875 0-5.99409375 0-11.9881875 5.98660125-23.976375 5.99409375-11.9881875 5.99409375-17.98228125 11.9732025-29.97046875l131.74268718-335.66925c5.99409375-11.9881875 5.99409375-23.976375 11.980695-35.9645625 5.98660125-11.9881875 11.9732025-23.976375 17.95980375-29.97046875 5.99409375-5.99409375 11.980695-17.98228125 23.95389657-23.976375 11.980695-5.99409375 23.9538975-5.99409375 35.9345925-5.99409375 11.9732025 0 23.946405 0 35.92709906 5.99409375 11.9732025 5.99409375 17.96729625 11.9881875 23.9538975 23.976375 5.98660125 5.99409375 11.9732025 17.98228125 17.95980375 29.97046875 5.99409375 11.9881875 11.980695 23.976375 17.96729531 41.95865625l131.74268813 329.67515625c11.9732025 23.976375 17.96729625 41.95865625 17.96729624 53.94684375-5.99409375 5.99409375-11.980695 17.98228125-17.96729625 29.97046875zM906.85334469 571.9409375c-65.86759781-23.976375-113.77539187-53.94684375-155.69658563-89.91140625-41.91370031 41.95865625-95.80809562 71.929125-161.68318593 89.91140625l-17.95980375-29.97046875c65.86759781-17.98228125 119.76199313-41.95865625 161.68318687-83.9173125C691.2757625 416.0945 655.34866344 362.14765625 643.36796844 302.20671875h-59.88099657v-23.976375h161.69067938c-11.9881875-17.98228125-23.96139-41.95865625-35.9345925-59.9409375l17.95980375-5.99409375c11.980695 17.98228125 29.94799125 41.95865625 41.92119281 65.93503125h149.70249188v29.97046875h-59.88099657c-17.95980375 59.9409375-47.90030156 113.88778125-83.83489406 149.85234375 41.92119281 35.9645625 89.82149438 65.93503125 155.69658563 83.9173125l-23.9538975 29.97046875z" p-id="1902"></path></svg>