<svg width="1024" height="1024" xmlns="http://www.w3.org/2000/svg" class="icon">
 <defs>
  <style type="text/css"/>
 </defs>
 <g>
  <title>background</title>
  <rect fill="none" id="canvas_background" height="402" width="582" y="-1" x="-1"/>
 </g>
 <g>
  <title>Layer 1</title>
  <path transform="rotate(-180 246.0877380371094,246.54618835449216) " stroke="null" style="vector-effect: non-scaling-stroke;" id="svg_1" d="m333.49344,428.64762l94.82877,-94.81546l-165.75003,-165.78686l104.13574,-103.60055l-302.61109,0l-0.24355,302.12604l103.43068,-104.11015l166.20948,166.18698z"/>
  <path transform="rotate(-180 776.03955078125,776.06005859375) " id="svg_2" d="m854.84544,760.13333l-166.23507,-166.17469l-94.80523,94.80625l165.749,165.79607l-104.1081,103.60054l302.60904,0l0.21899,-302.12604l-103.42863,104.09787z"/>
  <path transform="rotate(-180 775.8216552734375,246.31594848632812) " id="svg_3" d="m688.53567,428.5504l165.77458,-165.749l103.6251,104.12039l0,-302.57425l-302.12604,-0.26606l104.11015,103.45421l-166.21153,166.19618l94.82774,94.81853z"/>
  <path transform="rotate(-180 246.32003784179688,776.267822265625) " id="svg_4" d="m333.59066,594.03334l-165.77356,165.77151l-103.5985,-104.13266l0,302.59881l302.124,0.23126l-104.10811,-103.43067l166.18698,-166.21051l-94.83081,-94.82774z"/>
 </g>
</svg>