<?xml version="1.0" standalone="no"?><!DOCTYPE svg PUBLIC "-//W3C//DTD SVG 1.1//EN" "http://www.w3.org/Graphics/SVG/1.1/DTD/svg11.dtd"><svg t="1548756000728" class="icon" style="" viewBox="0 0 1097 1024" version="1.1" xmlns="http://www.w3.org/2000/svg" p-id="2119" xmlns:xlink="http://www.w3.org/1999/xlink" width="214.2578125" height="200"><defs><style type="text/css"></style></defs><path d="M127.07839839-24.41007451l-114.55359715 114.53668661 200.22417874 200.26887396-125.79393575 125.14766211L452.50580731 415.54314817l0.29474953-364.96488869-124.94351214 125.76373675-200.77985411-200.75207074z" p-id="2120"></path><path d="M777.6432979 854.45387659L978.45335229 1055.18903548l114.52339816-114.52460597-200.22417874-200.2797468 125.76252765-125.1476621-365.54955525 0-0.26334145 364.96488869 124.94109524-125.74924051z" p-id="2121"></path><path d="M978.01605985-24.84736695L777.76288992 175.37560529l-125.17786239-125.7758161V415.10344012L1017.54870842 415.42838994l-125.76373546-124.97250331 200.78106193-200.76294227-114.55118285-114.53910221z" p-id="2122"></path><path d="M127.52173115 1055.60337575L327.77248546 855.35262015 452.91773197 981.14414028l0-365.53626682-364.9624731-0.27904549 125.76252766 124.94230303-200.75206944 200.77985412 114.55359716 114.55239063z" p-id="2123"></path></svg>