<svg class="icon" viewBox="0 0 1097 1024" xmlns="http://www.w3.org/2000/svg" width="214.258" height="200"><defs><style/></defs><path d="M127.078-24.41L12.525 90.127l200.224 200.268L86.955 415.543h365.55l.296-364.965-124.944 125.764L127.077-24.41zM777.643 854.454l200.81 200.735 114.524-114.525-200.224-200.28 125.762-125.147h-365.55l-.263 364.965 124.941-125.75zM978.016-24.847L777.763 175.376 652.585 49.6v365.503l364.964.325-125.764-124.972 200.781-200.763-114.551-114.54zM127.522 1055.603l200.25-200.25 125.146 125.791V615.608l-364.963-.28 125.763 124.943-200.752 200.78 114.553 114.552z"/></svg>