<svg class="icon" viewBox="0 0 1024 1024" xmlns="http://www.w3.org/2000/svg" width="200" height="200"><defs><style/></defs><path d="M667.322 308.2c17.967 53.948 41.921 95.906 83.842 137.865 35.927-35.965 59.881-83.917 77.849-137.864H667.322zm-395.22 299.705h155.696L349.95 398.112 272.1 607.905z"/><path d="M870.926 32.472H152.332C86.464 32.472 32.57 86.42 32.57 152.355v719.292c0 65.935 53.894 119.882 119.762 119.882h718.594c65.868 0 119.762-53.947 119.762-119.882V152.354c0-65.935-47.908-119.882-119.762-119.882zM577.5 805.712c-11.973 11.988-23.954 11.988-35.927 11.988-5.994 0-17.967 0-23.954-5.994-5.994-5.994-11.98 0-11.98-5.994s-5.987-11.989-11.974-23.977c-5.994-11.988-5.994-17.982-11.98-29.97l-23.947-65.935h-209.59l-23.954 65.935c-11.974 23.976-17.968 41.958-23.954 53.947-5.994 11.988-17.968 11.988-35.927 11.988-11.981 0-23.954-5.994-35.935-11.988-11.973-11.989-17.96-17.983-17.96-29.97 0-5.995 0-11.99 5.987-23.977 5.994-11.988 5.994-17.983 11.973-29.97l131.743-335.67c5.994-11.988 5.994-23.976 11.98-35.965 5.987-11.988 11.973-23.976 17.96-29.97 5.994-5.994 11.98-17.982 23.954-23.976 11.98-5.994 23.954-5.994 35.935-5.994 11.973 0 23.946 0 35.927 5.994 11.973 5.994 17.967 11.988 23.954 23.976 5.986 5.994 11.973 17.982 17.96 29.97 5.993 11.989 11.98 23.977 17.967 41.96L577.5 721.792c11.974 23.977 17.968 41.959 17.968 53.947-5.994 5.994-11.981 17.982-17.968 29.97zm329.353-233.77c-65.867-23.976-113.775-53.947-155.696-89.911-41.914 41.958-95.808 71.929-161.683 89.91l-17.96-29.97c65.867-17.982 119.762-41.958 161.683-83.917-41.921-41.959-77.848-95.905-89.829-155.846h-59.881V278.23h161.69c-11.988-17.982-23.96-41.958-35.934-59.94l17.96-5.995c11.98 17.983 29.948 41.959 41.921 65.935h149.703v29.97h-59.881c-17.96 59.942-47.9 113.889-83.835 149.853 41.92 35.965 89.821 65.935 155.696 83.917l-23.954 29.97z"/></svg>