<?xml version="1.0" standalone="no"?><!DOCTYPE svg PUBLIC "-//W3C//DTD SVG 1.1//EN" "http://www.w3.org/Graphics/SVG/1.1/DTD/svg11.dtd"><svg t="1548756056607" class="icon" style="" viewBox="0 0 1024 1024" version="1.1" xmlns="http://www.w3.org/2000/svg" p-id="3323" xmlns:xlink="http://www.w3.org/1999/xlink" width="200" height="200"><defs><style type="text/css"></style></defs><path d="M217.99822222 702.23644445l124.70044445-124.70044445C334.50666667 557.51111111 329.95555555 535.66577778 329.95555555 512c0-100.12444445 81.92-182.04444445 182.04444445-182.04444445 23.66577778 0 45.51111111 4.55111111 65.536 12.74311112l93.75288889-93.75288889c-50.97244445-18.20444445-104.67555555-28.21688889-159.28888889-28.21688889-191.14666667 0-375.01155555 121.05955555-436.90666667 291.27111111 27.30666667 74.63822222 78.27911111 140.17422222 142.90488889 190.23644445z" p-id="3324"></path><path d="M402.77333333 512v5.46133333L517.46133333 402.77333333H512c-60.07466667 0-109.22666667 49.152-109.22666667 109.22666667z m403.22844445-190.23644445l185.68533333-185.68533333L939.80444445 84.19555555 82.37511111 941.62488889l51.88266667 51.88266666 219.36355555-219.36355555A444.18844445 444.18844445 0 0 0 512 803.27111111c190.23644445 0 375.92177778-121.05955555 437.81688889-291.27111111-27.30666667-74.63822222-79.18933333-140.17422222-143.81511111-190.23644445zM512 694.04444445c-22.75555555 0-45.51111111-4.55111111-65.536-12.74311112l60.98488889-60.98488888h5.46133333c60.07466667 0 109.22666667-49.152 109.22666667-109.22666667v-5.46133333l60.98488889-60.9848889C689.49333333 466.48888889 694.04444445 489.24444445 694.04444445 512c0 100.12444445-81.92 182.04444445-182.04444445 182.04444445z" p-id="3325"></path></svg>