<svg class="icon" viewBox="0 0 1024 1024" xmlns="http://www.w3.org/2000/svg" width="200" height="200"><defs><style/></defs><path d="M512 220.729c-191.147 0-375.012 121.06-436.907 291.271C136.988 682.212 320.853 803.271 512 803.271c190.236 0 375.922-121.06 437.817-291.271C887.012 341.788 702.237 220.729 512 220.729zm0 473.315c-100.124 0-182.044-81.92-182.044-182.044S411.876 329.956 512 329.956 694.044 411.876 694.044 512 612.124 694.044 512 694.044zM621.227 512c0 60.075-49.152 109.227-109.227 109.227S402.773 572.075 402.773 512 451.925 402.773 512 402.773 621.227 451.925 621.227 512z"/></svg>