<?xml version="1.0" standalone="no"?><!DOCTYPE svg PUBLIC "-//W3C//DTD SVG 1.1//EN" "http://www.w3.org/Graphics/SVG/1.1/DTD/svg11.dtd"><svg t="1548756036524" class="icon" style="" viewBox="0 0 1024 1024" version="1.1" xmlns="http://www.w3.org/2000/svg" p-id="2667" xmlns:xlink="http://www.w3.org/1999/xlink" width="200" height="200"><defs><style type="text/css"></style></defs><path d="M970.32213333 383.69066667c9.96053333-14.93973333 6.64-34.85973333-6.64-46.48-14.93973333-11.62026667-34.85973333-8.29973333-46.48 6.64-1.6608 1.65973333-185.92 219.12106667-405.0432 219.12106666-212.48 0-405.04213333-219.12106667-406.70186666-220.7808-11.62133333-13.28-33.2-14.93973333-46.48106667-3.32053333-13.28 11.62026667-14.93973333 33.2-3.32053333 46.48106667 3.32053333 4.9792 43.16053333 49.79946667 106.24 99.6l-84.66133334 87.9808c-13.28 13.28-11.6192 34.85973333 1.6608 46.48 3.32053333 6.64 11.62026667 9.96053333 19.92106667 9.96053333 8.29866667 0 16.59946667-3.32053333 23.23946667-9.96053333l91.30026666-94.61973334c43.16053333 29.88053333 94.6208 58.10133333 151.06133334 78.02026667l-34.8608 117.86133333c-4.9792 18.2592 4.98133333 36.51946667 23.24053333 41.49973334h9.95946667c14.93973333 0 28.2208-9.96053333 31.54026666-24.90026667l34.85973334-117.86133333c26.56 4.98026667 54.7808 8.3008 83.00053333 8.3008s56.44053333-3.32053333 83.0016-8.3008l34.85866667 116.2016c3.3216 14.93973333 18.26133333 24.8992 31.54133333 24.8992 3.32053333 0 6.64 0 8.3008-1.65973334 18.2592-4.98133333 28.21973333-23.23946667 23.24053333-41.49973333L658.23893333 601.152c56.4416-19.92106667 107.9008-48.1408 151.06133334-78.02026667l89.64053333 92.96c6.64 6.64 14.93973333 9.96053333 23.23946667 9.96053334 8.29973333 0 16.60053333-3.32053333 23.23946666-9.95946667 13.28-13.28106667 13.28-33.2 1.6608-46.48106667l-84.66133333-87.97973333c68.06186667-49.8016 107.904-97.94133333 107.904-97.94133333z" p-id="2668"></path></svg>