<svg class="icon" viewBox="0 0 1024 1024" xmlns="http://www.w3.org/2000/svg" width="200" height="200"><defs><style/></defs><path d="M217.998 702.236l124.7-124.7c-8.191-20.025-12.742-41.87-12.742-65.536 0-100.124 81.92-182.044 182.044-182.044 23.666 0 45.511 4.55 65.536 12.743l93.753-93.753C620.316 230.74 566.613 220.729 512 220.729c-191.147 0-375.012 121.06-436.907 291.271 27.307 74.638 78.28 140.174 142.905 190.236z"/><path d="M402.773 512v5.461l114.688-114.688H512c-60.075 0-109.227 49.152-109.227 109.227zm403.229-190.236l185.685-185.686-51.883-51.882L82.375 941.625l51.883 51.883L353.62 774.144A444.188 444.188 0 0 0 512 803.271c190.236 0 375.922-121.06 437.817-291.271-27.307-74.638-79.19-140.174-143.815-190.236zM512 694.044c-22.756 0-45.511-4.55-65.536-12.743l60.985-60.985h5.461c60.075 0 109.227-49.152 109.227-109.226v-5.462l60.985-60.984c6.371 21.845 10.922 44.6 10.922 67.356 0 100.124-81.92 182.044-182.044 182.044z"/></svg>