<svg class="icon" viewBox="0 0 1024 1024" xmlns="http://www.w3.org/2000/svg" width="200" height="200"><defs><style/></defs><path d="M970.322 383.69c9.96-14.94 6.64-34.86-6.64-46.48-14.94-11.62-34.86-8.3-46.48 6.64-1.66 1.66-185.92 219.122-405.043 219.122-212.48 0-405.042-219.121-406.702-220.781-11.621-13.28-33.2-14.94-46.481-3.32-13.28 11.62-14.94 33.2-3.32 46.48 3.32 4.98 43.16 49.8 106.24 99.6l-84.662 87.981c-13.28 13.28-11.62 34.86 1.66 46.48 3.321 6.64 11.621 9.96 19.922 9.96 8.299 0 16.6-3.32 23.24-9.96l91.3-94.62c43.16 29.881 94.62 58.102 151.061 78.02l-34.86 117.862c-4.98 18.26 4.98 36.52 23.24 41.5h9.96c14.939 0 28.22-9.96 31.54-24.9l34.86-117.862c26.56 4.98 54.78 8.301 83 8.301s56.44-3.32 83.001-8.3l34.86 116.2c3.32 14.94 18.26 24.9 31.54 24.9 3.32 0 6.64 0 8.301-1.66 18.26-4.981 28.22-23.24 23.24-41.5l-34.86-116.201c56.442-19.921 107.9-48.14 151.061-78.02l89.64 92.96c6.64 6.64 14.94 9.96 23.24 9.96 8.3 0 16.6-3.32 23.24-9.96 13.28-13.28 13.28-33.2 1.66-46.48l-84.66-87.98c68.061-49.802 107.903-97.941 107.903-97.941z"/></svg>