<svg class="icon" viewBox="0 0 1024 1024" xmlns="http://www.w3.org/2000/svg" width="200" height="200"><defs><style/></defs><path d="M1022.88 504.832c-.32-1.344-.128-2.784-.64-4.096-.192-.544-.672-.832-.864-1.344-.32-.768-.256-1.632-.672-2.368-92.8-177.632-294.816-304.896-507.936-304.896-213.152 0-415.136 127.072-508 304.672-.416.736-.352 1.6-.672 2.368-.224.512-.672.8-.864 1.344-.512 1.312-.32 2.752-.64 4.096-.576 2.4-1.12 4.704-1.12 7.168s.576 4.736 1.12 7.168c.32 1.344.128 2.784.64 4.096.192.544.672.832.864 1.344.32.768.256 1.632.672 2.368 92.832 177.632 294.848 304.896 508 304.896 213.12 0 415.136-127.072 507.936-304.672.448-.736.384-1.6.672-2.368.192-.512.672-.8.864-1.344.512-1.312.32-2.752.64-4.096.544-2.432 1.12-4.736 1.12-7.168s-.576-4.768-1.12-7.168zM512.736 767.616c-179.68 0-355.584-102.112-443.232-255.84 88.128-153.92 263.776-255.68 443.232-255.68 179.616 0 355.552 102.144 443.2 255.84-88.128 153.952-263.744 255.68-443.2 255.68zm0-383.648c8.832 0 15.936 7.136 15.936 16 0 8.8-7.136 15.968-15.936 15.968v.032c-52.928 0-95.968 43.04-95.968 95.904 0 8.832-7.168 16-15.968 16s-16-7.168-16-16c0-70.56 57.184-127.744 127.744-127.872.064 0 .128-.032.192-.032zM512 288c-123.744 0-224 100.288-224 224s100.288 224 224 224c123.68 0 224-100.32 224-224 0-123.744-100.32-224-224-224zm0 416c-105.888 0-192-86.112-192-192s86.112-192 192-192 192 86.112 192 192-86.112 192-192 192z"/></svg>