<svg class="icon" viewBox="0 0 1024 1024" xmlns="http://www.w3.org/2000/svg" width="200" height="200"><defs><style/></defs><path d="M732.274 71.566c-6.03-3.072-13.198 1.366-13.198 8.192v73.046c0 6.257 3.3 12.06 8.533 15.473 25.486 16.043 49.152 34.93 70.77 56.662 37.205 37.319 66.446 80.668 86.812 128.91 21.049 49.948 31.744 102.969 31.744 157.81 0 54.727-10.695 107.861-31.744 157.81-20.366 48.241-49.607 91.59-86.812 128.91-37.206 37.319-80.555 66.56-128.797 86.926-49.834 21.163-102.969 31.858-157.582 31.858s-107.748-10.695-157.582-31.858c-48.242-20.366-91.591-49.607-128.797-86.926-37.205-37.32-66.446-80.669-86.812-128.91-21.049-49.949-31.744-102.97-31.744-157.81 0-54.727 10.695-107.862 31.744-157.81 20.366-48.242 49.607-91.591 86.812-128.91a411.308 411.308 0 0 1 70.77-56.662c5.348-3.3 8.533-9.216 8.533-15.473v-73.16c0-6.826-7.168-11.15-13.198-8.192-159.175 80.1-268.97 244.054-271.246 434.063-3.186 271.701 219.022 497.436 490.61 498.005 271.929.569 492.43-219.932 492.43-491.975 0-192.512-110.364-359.197-271.246-439.979z"/><path d="M475.591 566.613h72.818c5.006 0 9.102-4.096 9.102-9.102V29.582c0-5.006-4.096-9.102-9.102-9.102H475.59c-5.006 0-9.102 4.096-9.102 9.102v527.93c0 5.005 4.096 9.101 9.102 9.101z"/></svg>