<?xml version="1.0" standalone="no"?><!DOCTYPE svg PUBLIC "-//W3C//DTD SVG 1.1//EN" "http://www.w3.org/Graphics/SVG/1.1/DTD/svg11.dtd"><svg t="1548756049632" class="icon" style="" viewBox="0 0 1024 1024" version="1.1" xmlns="http://www.w3.org/2000/svg" p-id="3104" xmlns:xlink="http://www.w3.org/1999/xlink" width="200" height="200"><defs><style type="text/css"></style></defs><path d="M732.27377778 71.56622222c-6.03022222-3.072-13.19822222 1.36533333-13.19822223 8.192v73.04533333c0 6.25777778 3.29955555 12.06044445 8.53333334 15.47377778 25.48622222 16.04266667 49.152 34.92977778 70.76977778 56.66133334 37.20533333 37.31911111 66.44622222 80.66844445 86.81244444 128.91022222 21.04888889 49.94844445 31.744 102.96888889 31.744 157.80977778 0 54.72711111-10.69511111 107.86133333-31.744 157.80977778-20.36622222 48.24177778-49.60711111 91.59111111-86.81244444 128.91022222-37.20533333 37.31911111-80.55466667 66.56-128.79644445 86.92622222-49.83466667 21.16266667-102.96888889 31.85777778-157.58222222 31.85777778s-107.74755555-10.69511111-157.58222222-31.85777778c-48.24177778-20.36622222-91.59111111-49.60711111-128.79644445-86.92622222-37.20533333-37.31911111-66.44622222-80.66844445-86.81244444-128.91022222-21.04888889-49.94844445-31.744-102.96888889-31.744-157.80977778 0-54.72711111 10.69511111-107.86133333 31.744-157.80977778 20.36622222-48.24177778 49.60711111-91.59111111 86.81244444-128.91022222 21.61777778-21.61777778 45.28355555-40.50488889 70.76977778-56.66133334 5.34755555-3.29955555 8.53333333-9.216 8.53333334-15.47377778V79.64444445c0-6.82666667-7.168-11.15022222-13.19822223-8.192C132.55111111 151.552 22.75555555 315.50577778 20.48 505.51466667 17.29422222 777.216 239.50222222 1002.95111111 511.08977778 1003.52c271.92888889 0.56888889 492.43022222-219.93244445 492.43022222-491.97511111 0-192.512-110.36444445-359.19644445-271.24622222-439.97866667z" p-id="3105"></path><path d="M475.59111111 566.61333333h72.81777778c5.00622222 0 9.10222222-4.096 9.10222222-9.10222222V29.58222222c0-5.00622222-4.096-9.10222222-9.10222222-9.10222222h-72.81777778c-5.00622222 0-9.10222222 4.096-9.10222222 9.10222222v527.92888889c0 5.00622222 4.096 9.10222222 9.10222222 9.10222222z" p-id="3106"></path></svg>