<svg class="icon" viewBox="0 0 1024 1024" xmlns="http://www.w3.org/2000/svg" width="200" height="200"><defs><style/></defs><path d="M512 2.276C230.514 2.276 2.276 230.514 2.276 512S230.514 1021.724 512 1021.724 1021.724 793.486 1021.724 512 793.486 2.276 512 2.276zM301.852 728.633c-2.275 1.024-5.006 0-6.03-2.39a5.025 5.025 0 0 1 0-3.64l112.299-256.57 150.3 150.301-256.569 112.299zm426.78-426.78L616.335 558.42l-150.3-150.3 256.569-112.299c2.275-1.024 5.006 0 6.03 2.39.455 1.137.455 2.389 0 3.64z"/></svg>