<?xml version="1.0" standalone="no"?><!DOCTYPE svg PUBLIC "-//W3C//DTD SVG 1.1//EN" "http://www.w3.org/Graphics/SVG/1.1/DTD/svg11.dtd"><svg t="1548753131313" class="icon" style="" viewBox="0 0 1024 1024" version="1.1" xmlns="http://www.w3.org/2000/svg" p-id="1782" xmlns:xlink="http://www.w3.org/1999/xlink" width="200" height="200"><defs><style type="text/css"></style></defs><path d="M512 2.27555555C230.51377778 2.27555555 2.27555555 230.51377778 2.27555555 512s228.23822222 509.72444445 509.72444445 509.72444445 509.72444445-228.23822222 509.72444445-509.72444445S793.48622222 2.27555555 512 2.27555555zM301.85244445 728.63288889c-2.27555555 1.024-5.00622222 0-6.03022223-2.38933334-0.45511111-1.13777778-0.45511111-2.50311111 0-3.64088888l112.29866667-256.56888889 150.30044444 150.30044444-256.56888888 112.29866667z m426.78044444-426.78044444l-112.29866667 256.56888888-150.30044444-150.30044444L722.60266667 295.82222222c2.27555555-1.024 5.00622222 0 6.03022222 2.38933333 0.45511111 1.13777778 0.45511111 2.38933333 0 3.6408889z" p-id="1783"></path></svg>