<?xml version="1.0" standalone="no"?><!DOCTYPE svg PUBLIC "-//W3C//DTD SVG 1.1//EN" "http://www.w3.org/Graphics/SVG/1.1/DTD/svg11.dtd"><svg t="1548753268355" class="icon" style="" viewBox="0 0 1024 1024" version="1.1" xmlns="http://www.w3.org/2000/svg" p-id="1783" xmlns:xlink="http://www.w3.org/1999/xlink" width="200" height="200"><defs><style type="text/css"></style></defs><path d="M967.67747161 35.60991605H574.13783703c-11.3919368 0-20.71261235 9.32067555-20.71261234 20.71261234v393.53963458c0 11.3919368 9.32067555 20.71261235 20.71261234 20.71261234h393.53963458c11.3919368 0 20.71261235-9.32067555 20.71261234-20.71261234V56.32252839c0-11.3919368-9.32067555-20.71261235-20.71261234-20.71261234z m0 517.81530864H574.13783703c-11.3919368 0-20.71261235 9.32067555-20.71261234 20.71261234v393.53963458c0 11.3919368 9.32067555 20.71261235 20.71261234 20.71261234h393.53963458c11.3919368 0 20.71261235-9.32067555 20.71261234-20.71261234V574.13783703c0-11.3919368-9.32067555-20.71261235-20.71261234-20.71261234zM449.86216297 35.60991605H56.32252839c-11.3919368 0-20.71261235 9.32067555-20.71261234 20.71261234v393.53963458c0 11.3919368 9.32067555 20.71261235 20.71261234 20.71261234h393.53963458c11.3919368 0 20.71261235-9.32067555 20.71261234-20.71261234V56.32252839c0-11.3919368-9.32067555-20.71261235-20.71261234-20.71261234z m0 517.81530864H56.32252839c-11.3919368 0-20.71261235 9.32067555-20.71261234 20.71261234v393.53963458c0 11.3919368 9.32067555 20.71261235 20.71261234 20.71261234h393.53963458c11.3919368 0 20.71261235-9.32067555 20.71261234-20.71261234V574.13783703c0-11.3919368-9.32067555-20.71261235-20.71261234-20.71261234z" p-id="1784"></path></svg>