<?xml version="1.0" standalone="no"?><!DOCTYPE svg PUBLIC "-//W3C//DTD SVG 1.1//EN" "http://www.w3.org/Graphics/SVG/1.1/DTD/svg11.dtd"><svg t="1548752931130" class="icon" style="" viewBox="0 0 1024 1024" version="1.1" xmlns="http://www.w3.org/2000/svg" p-id="1907" xmlns:xlink="http://www.w3.org/1999/xlink" width="200" height="200"><defs><style type="text/css"></style></defs><path d="M998.96888889 512H830.57777778V398.22222222c87.38133333 0 158.15111111-70.76977778 158.15111111-158.15111111 0-5.00622222-4.096-9.10222222-9.10222222-9.10222222h-68.26666667c-5.00622222 0-9.10222222 4.096-9.10222222 9.10222222 0 39.59466667-32.08533333 71.68-71.68 71.68H193.42222222c-39.59466667 0-71.68-32.08533333-71.68-71.68 0-5.00622222-4.096-9.10222222-9.10222222-9.10222222h-68.26666667c-5.00622222 0-9.10222222 4.096-9.10222222 9.10222222 0 87.38133333 70.76977778 158.15111111 158.15111111 158.15111111v113.77777778H25.03111111c-5.00622222 0-9.10222222 4.096-9.10222222 9.10222222v63.71555556c0 5.00622222 4.096 9.10222222 9.10222222 9.10222222h168.39111111v109.22666667c0 7.39555555 0.22755555 14.79111111 0.79644445 21.95911111C116.16711111 758.44266667 61.44 835.92533333 61.44 926.15111111c0 5.00622222 4.096 9.10222222 9.10222222 9.10222222h63.71555556c5.00622222 0 9.10222222-4.096 9.10222222-9.10222222 0-50.28977778 27.19288889-94.32177778 67.81155555-117.98755556 6.82666667 19.56977778 15.47377778 38.22933333 25.82755556 55.75111112 27.648 47.21777778 67.12888889 86.69866667 114.34666667 114.34666666 32.88177778 19.22844445 69.40444445 32.768 108.43022222 39.25333334 5.00622222 0 9.10222222-4.096 9.10222222-9.10222222V480.14222222c0-5.00622222 4.096-9.10222222 9.10222223-9.10222222h68.26666666c5.00622222 0 9.10222222 4.096 9.10222222 9.10222222v528.15644445c0 5.00622222 4.096 9.10222222 9.10222222 9.10222222 39.02577778-6.48533333 75.54844445-20.02488889 108.43022223-39.25333334 47.21777778-27.648 86.69866667-67.12888889 114.34666667-114.34666666 10.35377778-17.63555555 19.00088889-36.29511111 25.82755555-55.75111111C853.44711111 831.82933333 880.64 875.86133333 880.64 926.15111111c0 5.00622222 4.096 9.10222222 9.10222222 9.10222222h63.71555556c5.00622222 0 9.10222222-4.096 9.10222222-9.10222222 0-90.22577778-54.72711111-167.70844445-132.77866667-201.04533333 0.45511111-7.28177778 0.79644445-14.56355555 0.79644445-21.95911111v-109.22666667h168.39111111c5.00622222 0 9.10222222-4.096 9.10222222-9.10222222v-63.71555556c0-5.00622222-4.096-9.10222222-9.10222222-9.10222222z" p-id="1908"></path><path d="M275.34222222 248.03555555h473.31555556c5.00622222 0 9.10222222-4.096 9.10222222-9.10222222 0-45.51111111-10.01244445-87.26755555-29.46844445-122.99377778-19.56977778-35.84-48.35555555-64.62577778-84.19555555-84.19555555C608.36977778 12.288 566.61333333 2.27555555 521.10222222 2.27555555h-18.20444444c-45.51111111 0-87.26755555 10.01244445-122.99377778 29.46844445-35.84 19.56977778-64.62577778 48.35555555-84.19555555 84.19555555C276.25244445 151.66577778 266.24 193.42222222 266.24 238.93333333c0 5.00622222 4.096 9.10222222 9.10222222 9.10222222z" p-id="1909"></path></svg>