<svg class="icon" viewBox="0 0 1024 1024" xmlns="http://www.w3.org/2000/svg" width="200" height="200"><defs><style/></defs><path d="M512.569 373.874c-34.02 0-65.877 13.198-89.998 37.319-24.007 24.12-37.32 55.979-37.32 89.998 0 34.02 13.313 65.877 37.32 89.998 24.12 24.007 55.978 37.32 89.998 37.32s65.877-13.313 89.998-37.32c24.007-24.12 37.32-55.978 37.32-89.998s-13.313-65.877-37.32-89.998c-24.12-24.121-55.979-37.32-89.998-37.32z"/><path d="M981.675 641.82l-74.411-63.601c3.527-21.618 5.348-43.691 5.348-65.65s-1.82-44.146-5.348-65.65l74.41-63.602c11.492-9.785 15.702-25.713 10.582-40.05l-1.024-2.958c-20.594-57.344-50.972-110.137-90.567-156.672l-2.048-2.389a36.549 36.549 0 0 0-39.936-10.809l-92.388 32.882c-34.133-27.99-72.135-50.062-113.322-65.422L635.108 41.3c-2.731-14.905-14.45-26.51-29.355-29.24l-3.072-.57C543.516.797 481.166.797 422 11.492l-3.071.57c-14.905 2.73-26.624 14.335-29.355 29.24l-17.977 97.053c-40.846 15.474-78.62 37.433-112.526 65.194l-93.07-33.109c-14.222-5.006-30.151-.796-39.936 10.809l-2.048 2.39C84.423 230.4 54.044 283.078 33.45 340.308l-1.024 2.959c-5.12 14.222-.91 30.15 10.581 40.05l75.32 64.284c-3.526 21.39-5.233 43.235-5.233 64.853 0 21.845 1.707 43.69 5.234 64.853l-75.093 64.285c-11.492 9.785-15.702 25.714-10.582 40.05l1.024 2.958c20.594 57.23 50.973 110.137 90.567 156.672l2.048 2.39a36.549 36.549 0 0 0 39.936 10.808l93.07-33.11c33.906 27.876 71.68 49.95 112.527 65.195l17.977 97.053c2.73 14.905 14.45 26.51 29.354 29.24l3.072.57a510.032 510.032 0 0 0 90.34 8.078c30.379 0 60.757-2.73 90.34-8.078l3.071-.57c14.905-2.73 26.624-14.335 29.355-29.24l17.863-96.597c41.188-15.474 79.19-37.433 113.323-65.423l92.387 32.882c14.223 5.006 30.152.797 39.936-10.809l2.048-2.39c39.595-46.762 69.974-99.44 90.568-156.671l1.024-2.958c4.892-14.109.682-29.924-10.81-39.823zm-469.106 59.392c-110.478 0-200.021-89.543-200.021-200.02S402.09 301.17 512.568 301.17 712.59 390.713 712.59 501.19s-89.543 200.022-200.02 200.022z"/></svg>