<svg class="icon" viewBox="0 0 1024 1024" xmlns="http://www.w3.org/2000/svg" width="200" height="200"><defs><style/></defs><path d="M998.969 512H830.578V398.222c87.381 0 158.15-70.77 158.15-158.15 0-5.007-4.095-9.103-9.101-9.103H911.36c-5.006 0-9.102 4.096-9.102 9.102 0 39.595-32.086 71.68-71.68 71.68H193.422c-39.594 0-71.68-32.085-71.68-71.68 0-5.006-4.096-9.102-9.102-9.102H44.373c-5.006 0-9.102 4.096-9.102 9.102 0 87.381 70.77 158.151 158.151 158.151V512H25.032c-5.007 0-9.103 4.096-9.103 9.102v63.716c0 5.006 4.096 9.102 9.102 9.102h168.391v109.227c0 7.395.228 14.79.797 21.959C116.167 758.443 61.44 835.926 61.44 926.15c0 5.006 4.096 9.102 9.102 9.102h63.716c5.006 0 9.102-4.096 9.102-9.102 0-50.29 27.193-94.322 67.812-117.987 6.826 19.57 15.473 38.229 25.827 55.75 27.648 47.218 67.129 86.7 114.347 114.347 32.882 19.229 69.404 32.768 108.43 39.254 5.006 0 9.102-4.096 9.102-9.103v-528.27c0-5.006 4.096-9.102 9.102-9.102h68.267c5.006 0 9.102 4.096 9.102 9.102V1008.3c0 5.006 4.096 9.102 9.103 9.102 39.025-6.485 75.548-20.025 108.43-39.253C720.1 950.5 759.58 911.018 787.228 863.8a318.076 318.076 0 0 0 25.828-55.751c40.391 23.78 67.584 67.811 67.584 118.101 0 5.006 4.096 9.102 9.102 9.102h63.716c5.006 0 9.102-4.096 9.102-9.102 0-90.226-54.727-167.708-132.779-201.045.455-7.282.797-14.564.797-21.96V593.92h168.39c5.007 0 9.103-4.096 9.103-9.102v-63.716c0-5.006-4.096-9.102-9.102-9.102z"/><path d="M275.342 248.036h473.316c5.006 0 9.102-4.096 9.102-9.103 0-45.51-10.012-87.267-29.468-122.993-19.57-35.84-48.356-64.626-84.196-84.196C608.37 12.288 566.613 2.276 521.102 2.276h-18.204c-45.511 0-87.268 10.012-122.994 29.468-35.84 19.57-64.626 48.356-84.196 84.196-19.456 35.726-29.468 77.482-29.468 122.993 0 5.007 4.096 9.103 9.102 9.103z"/></svg>