<svg class="icon" viewBox="0 0 1024 1024" xmlns="http://www.w3.org/2000/svg" width="200" height="200"><defs><style/></defs><path d="M895.177 32.47a97.452 97.452 0 0 1 37.032 7.083c11.62 4.723 21.792 11.44 30.502 20.15a98.561 98.561 0 0 1 20.698 30.503c5.082 11.62 7.624 24.325 7.624 38.126v766.872c0 27.594-8.899 50.473-26.687 68.629-17.79 18.156-40.12 27.234-66.995 27.234H129.392c-29.048 0-52.474-9.445-70.263-28.329-17.789-18.875-26.687-42.481-26.687-70.802V127.238c0-25.413 8.718-47.564 26.147-66.44C76.02 41.9 99.257 32.469 128.305 32.469h766.872zM642.454 849.453c13.074 0 22.512-3.088 28.321-9.258 5.81-6.177 8.718-14.348 8.719-24.513 0-9.445-2.91-17.428-8.719-23.965-5.81-6.537-15.247-9.798-28.32-9.798h-66.448c.727-1.454 1.087-3.636 1.087-6.537V235.08h67.542c13.066 0 22.144-3.268 27.234-9.805 5.082-6.536 7.624-14.528 7.624-23.965 0-9.446-2.55-17.43-7.624-23.966-5.09-6.537-14.168-9.805-27.234-9.805H378.839c-13.066 0-22.144 3.268-27.226 9.805-5.083 6.537-7.632 14.528-7.632 23.966 0 9.445 2.549 17.429 7.632 23.965 5.082 6.537 14.16 9.805 27.226 9.805h61.005v540.297c0 1.447.18 2.541.547 3.268.36.72.54 1.814.54 3.269h-59.903c-13.074 0-22.511 3.26-28.321 9.797-5.81 6.537-8.718 14.528-8.718 23.966 0 10.165 2.908 18.336 8.718 24.513 5.81 6.17 15.247 9.258 28.321 9.258h261.434z"/></svg>