<?xml version="1.0" standalone="no"?><!DOCTYPE svg PUBLIC "-//W3C//DTD SVG 1.1//EN" "http://www.w3.org/Graphics/SVG/1.1/DTD/svg11.dtd"><svg t="1548753168885" class="icon" style="" viewBox="0 0 1024 1024" version="1.1" xmlns="http://www.w3.org/2000/svg" p-id="1893" xmlns:xlink="http://www.w3.org/1999/xlink" width="200" height="200"><defs><style type="text/css"></style></defs><path d="M512.56888889 373.87377778c-34.01955555 0-65.87733333 13.19822222-89.99822222 37.31911111-24.00711111 24.12088889-37.31911111 55.97866667-37.31911112 89.99822222 0 34.01955555 13.312 65.87733333 37.31911112 89.99822222 24.12088889 24.00711111 55.97866667 37.31911111 89.99822222 37.31911112 34.01955555 0 65.87733333-13.312 89.99822222-37.31911112 24.00711111-24.12088889 37.31911111-55.97866667 37.31911111-89.99822222 0-34.01955555-13.312-65.87733333-37.31911111-89.99822222-24.12088889-24.12088889-55.97866667-37.31911111-89.99822222-37.31911111z" p-id="1894"></path><path d="M981.67466667 641.82044445l-74.41066667-63.60177778c3.52711111-21.61777778 5.34755555-43.69066667 5.34755555-65.64977778s-1.82044445-44.14577778-5.34755555-65.64977778l74.41066667-63.60177778c11.49155555-9.78488889 15.70133333-25.71377778 10.58133333-40.04977778l-1.024-2.95822222c-20.59377778-57.344-50.97244445-110.13688889-90.56711111-156.672l-2.048-2.38933333c-9.78488889-11.49155555-25.6-15.81511111-39.936-10.80888889l-92.38755556 32.88177778c-34.13333333-27.98933333-72.13511111-50.06222222-113.32266666-65.42222222l-17.86311112-96.59733334c-2.73066667-14.90488889-14.44977778-26.51022222-29.35466666-29.24088888l-3.072-0.5688889c-59.16444445-10.69511111-121.51466667-10.69511111-180.67911111 0l-3.072 0.5688889c-14.90488889 2.73066667-26.624 14.336-29.35466667 29.24088888l-17.97688889 97.05244445c-40.84622222 15.47377778-78.62044445 37.43288889-112.52622222 65.19466667l-93.07022222-33.10933334c-14.22222222-5.00622222-30.15111111-0.79644445-39.936 10.80888889l-2.048 2.38933333c-39.59466667 46.76266667-69.97333333 99.44177778-90.56711111 156.672l-1.024 2.95822222c-5.12 14.22222222-0.91022222 30.15111111 10.58133333 40.04977778l75.32088889 64.28444445c-3.52711111 21.39022222-5.23377778 43.23555555-5.23377778 64.85333333 0 21.84533333 1.70666667 43.69066667 5.23377778 64.85333334l-75.09333334 64.28444444c-11.49155555 9.78488889-15.70133333 25.71377778-10.58133333 40.04977778l1.024 2.95822222c20.59377778 57.23022222 50.97244445 110.13688889 90.56711111 156.672l2.048 2.38933333c9.78488889 11.49155555 25.6 15.81511111 39.936 10.80888889l93.07022222-33.10933333c33.90577778 27.87555555 71.68 49.94844445 112.52622223 65.19466667l17.97688889 97.05244444c2.73066667 14.90488889 14.44977778 26.51022222 29.35466666 29.24088889l3.072 0.56888889c29.696 5.34755555 59.96088889 8.07822222 90.33955556 8.07822222 30.37866667 0 60.75733333-2.73066667 90.33955556-8.07822222l3.072-0.56888889c14.90488889-2.73066667 26.624-14.336 29.35466666-29.24088889l17.86311111-96.59733334c41.18755555-15.47377778 79.18933333-37.43288889 113.32266667-65.42222222l92.38755556 32.88177778c14.22222222 5.00622222 30.15111111 0.79644445 39.936-10.80888889l2.048-2.38933333c39.59466667-46.76266667 69.97333333-99.44177778 90.5671111-156.672l1.024-2.95822222c4.89244445-14.10844445 0.68266667-29.92355555-10.80888888-39.82222222z m-469.10577778 59.392c-110.47822222 0-200.02133333-89.54311111-200.02133334-200.02133334s89.54311111-200.02133333 200.02133334-200.02133333 200.02133333 89.54311111 200.02133333 200.02133333-89.54311111 200.02133333-200.02133333 200.02133334z" p-id="1895"></path></svg>