<?xml version="1.0" standalone="no"?><!DOCTYPE svg PUBLIC "-//W3C//DTD SVG 1.1//EN" "http://www.w3.org/Graphics/SVG/1.1/DTD/svg11.dtd"><svg t="1548753326985" class="icon" style="" viewBox="0 0 1024 1024" version="1.1" xmlns="http://www.w3.org/2000/svg" p-id="1489" xmlns:xlink="http://www.w3.org/1999/xlink" width="200" height="200"><defs><style type="text/css"></style></defs><path d="M895.17723969 32.46931063a97.45198875 97.45198875 0 0 1 37.03175531 7.08400968c11.61927563 4.72267313 21.79176374 11.43936375 30.50247282 20.15007282a98.56144219 98.56144219 0 0 1 20.6973028 30.50247281c5.08249594 11.61927563 7.62374438 24.32551594 7.62374438 38.12621625v766.87218561c0 27.59390531-8.89811625 50.47263375-26.6868525 68.62868907-17.78873625 18.15605529-40.12023375 27.2340825-66.99449344 27.2340825H129.39201781c-29.04818906 0-52.4741475-9.44534625-70.26288375-28.32854343-17.78873625-18.87570094-26.6868525-42.48157031-26.68685156-70.80261751V127.23762125c0-25.41247969 8.71820437-47.56406625 26.14711781-66.43976719C76.01831375 41.89966437 99.256865 32.46931063 128.30505313 32.46931063h766.87218656zM642.45424812 849.45430813c13.07355938 0 22.51140937-3.08847844 28.32104719-9.25793907 5.80963781-6.17695686 8.71820437-14.34793125 8.71820532-24.51292312 0-9.44534625-2.9085675-17.42891344-8.71820532-23.96569313-5.80963781-6.5367797-15.24748781-9.79767281-28.32104718-9.79767281H576.00698469c0.72714188-1.45428375 1.08696469-3.63570844 1.08696469-6.53677969V235.07949125h67.54172437c13.06606313 0 22.14409031-3.26838937 27.2340825-9.80516906 5.08249594-6.5367797 7.62374438-14.52784219 7.62374438-23.96569313 0-9.44534625-2.54874469-17.42891344-7.62374438-23.96569312-5.08999219-6.5367797-14.16802031-9.80516906-27.2340825-9.80516906H378.83912281c-13.06606313 0-22.14409031 3.26838937-27.22658626 9.80516906-5.08249594 6.5367797-7.63124061 14.52784219-7.63123968 23.96569312 0 9.44534625 2.54874469 17.42891344 7.63123968 23.96569313 5.08249594 6.5367797 14.16052313 9.80516906 27.22658626 9.80516906h61.00494564v540.29631281c0 1.44678751 0.17991094 2.54124844 0.54722999 3.26838938 0.35982281 0.71964564 0.53973375 1.81410656 0.53973375 3.26839031H381.02804469c-13.07355938 0-22.51140937 3.26089313-28.32104718 9.79767282-5.80963781 6.5367797-8.71820437 14.52784219-8.71820438 23.96569312 0 10.16499188 2.9085675 18.33596625 8.71820438 24.51292312 5.80963781 6.16946063 15.24748781 9.25793906 28.32104718 9.25793906h261.43369968z" p-id="1490"></path></svg>