<svg class="icon" viewBox="0 0 1024 1024" xmlns="http://www.w3.org/2000/svg" width="200" height="200"><defs><style/></defs><path d="M967.677 35.61h-393.54c-11.391 0-20.712 9.32-20.712 20.713v393.54c0 11.391 9.32 20.712 20.713 20.712h393.54c11.391 0 20.712-9.32 20.712-20.713V56.322c0-11.391-9.32-20.712-20.713-20.712zm0 517.815h-393.54c-11.391 0-20.712 9.32-20.712 20.713v393.54c0 11.391 9.32 20.712 20.713 20.712h393.54c11.391 0 20.712-9.32 20.712-20.713v-393.54c0-11.391-9.32-20.712-20.713-20.712zM449.862 35.61H56.322c-11.391 0-20.712 9.32-20.712 20.713v393.54c0 11.391 9.32 20.712 20.713 20.712h393.54c11.391 0 20.712-9.32 20.712-20.713V56.322c0-11.391-9.32-20.712-20.713-20.712zm0 517.815H56.322c-11.391 0-20.712 9.32-20.712 20.713v393.54c0 11.391 9.32 20.712 20.713 20.712h393.54c11.391 0 20.712-9.32 20.712-20.713v-393.54c0-11.391-9.32-20.712-20.713-20.712z"/></svg>